<?xml version="1.0" encoding="UTF-8"?>
<svg id="_圖層_1" data-name="圖層_1" xmlns="http://www.w3.org/2000/svg" version="1.1" viewBox="0 0 35 35">
  <!-- Generator: Adobe Illustrator 30.0.0, SVG Export Plug-In . SVG Version: 2.1.1 Build 123)  -->
  <defs>
    <style>
      .st0 {
        fill: #475569;
      }
    </style>
  </defs>
  <path class="st0" d="M7.93,34.25c-.88,0-1.63-.31-2.25-.94s-.94-1.38-.94-2.25v-15.95c0-.88.31-1.63.94-2.25s1.38-.94,2.25-.94h1.59v-3.19c0-2.21.78-4.09,2.33-5.64s3.44-2.33,5.64-2.33,4.09.78,5.64,2.33,2.33,3.44,2.33,5.64v3.19h1.59c.88,0,1.63.31,2.25.94s.94,1.38.94,2.25v15.95c0,.88-.31,1.63-.94,2.25s-1.38.94-2.25.94H7.93ZM7.93,31.06h19.14v-15.95H7.93v15.95ZM17.5,26.27c.88,0,1.63-.31,2.25-.94s.94-1.38.94-2.25-.31-1.63-.94-2.25-1.38-.94-2.25-.94-1.63.31-2.25.94-.94,1.38-.94,2.25.31,1.63.94,2.25,1.38.94,2.25.94ZM12.72,11.92h9.57v-3.19c0-1.33-.47-2.46-1.4-3.39s-2.06-1.4-3.39-1.4-2.46.47-3.39,1.4c-.93.93-1.4,2.06-1.4,3.39v3.19ZM7.93,31.06v-15.95,15.95Z"/>
</svg>