<?xml version="1.0" encoding="UTF-8"?>
<svg id="_圖層_1" data-name="圖層_1" xmlns="http://www.w3.org/2000/svg" version="1.1" viewBox="0 0 35 35">
  <!-- Generator: Adobe Illustrator 30.0.0, SVG Export Plug-In . SVG Version: 2.1.1 Build 123)  -->
  <defs>
    <style>
      .st0 {
        fill: #475569;
      }
    </style>
  </defs>
  <path class="st0" d="M4.53,29.36c-.82,0-1.51-.29-2.09-.87s-.87-1.28-.87-2.09V8.61c0-.82.29-1.51.87-2.09s1.28-.87,2.09-.87h8.89l2.96,2.96h11.86c.82,0,1.51.29,2.09.87s.87,1.28.87,2.09H15.17l-2.96-2.96h-7.67v17.79l3.56-11.86h25.35l-3.82,12.71c-.2.64-.56,1.15-1.09,1.54s-1.12.57-1.76.57H4.53ZM7.64,26.39h19.12l2.67-8.89H10.31l-2.67,8.89ZM7.64,26.39l2.67-8.89-2.67,8.89ZM4.53,11.57v-2.96,2.96Z"/>
</svg>