<?xml version="1.0" encoding="UTF-8"?>
<svg id="_圖層_1" data-name="圖層_1" xmlns="http://www.w3.org/2000/svg" version="1.1" viewBox="0 0 35 35">
  <!-- Generator: Adobe Illustrator 30.0.0, SVG Export Plug-In . SVG Version: 2.1.1 Build 123)  -->
  <defs>
    <style>
      .st0 {
        fill: #475569;
      }
    </style>
  </defs>
  <path class="st0" d="M17.5,17.5c-2.35,0-4.36-.84-6.04-2.51-1.67-1.67-2.51-3.69-2.51-6.04s.84-4.36,2.51-6.04S15.15.4,17.5.4s4.36.84,6.04,2.51,2.51,3.69,2.51,6.04-.84,4.36-2.51,6.04c-1.67,1.67-3.69,2.51-6.04,2.51ZM.4,34.6v-5.99c0-1.21.31-2.32.94-3.34s1.45-1.79,2.49-2.32c2.21-1.1,4.45-1.93,6.73-2.49s4.6-.83,6.95-.83,4.67.28,6.95.83,4.53,1.38,6.73,2.49c1.03.53,1.86,1.31,2.49,2.32s.94,2.13.94,3.34v5.99H.4ZM4.67,30.33h25.65v-1.71c0-.39-.1-.75-.29-1.07s-.45-.57-.77-.75c-1.92-.96-3.87-1.68-5.83-2.16s-3.94-.72-5.93-.72-3.97.24-5.93.72-3.9,1.2-5.83,2.16c-.32.18-.58.43-.77.75s-.29.68-.29,1.07v1.71ZM17.5,13.22c1.18,0,2.18-.42,3.02-1.26s1.26-1.84,1.26-3.02-.42-2.18-1.26-3.02-1.84-1.26-3.02-1.26-2.18.42-3.02,1.26-1.26,1.84-1.26,3.02.42,2.18,1.26,3.02,1.84,1.26,3.02,1.26Z"/>
</svg>